Coordinates
version=1
nRows=19
nColumns=24
inDegrees=yes

Units are S.I. units (second, meters, Newtons, ...)
Angles are in degrees.

endheader
time	pelvis_tilt	pelvis_list	pelvis_rotation	pelvis_tx	pelvis_ty	pelvis_tz	hip_flexion_r	hip_adduction_r	hip_rotation_r	knee_angle_r	ankle_angle_r	subtalar_angle_r	mtp_angle_r	hip_flexion_l	hip_adduction_l	hip_rotation_l	knee_angle_l	ankle_angle_l	subtalar_angle_l	mtp_angle_l	lumbar_extension	lumbar_bending	lumbar_rotation
      0.55400000	     -3.05911087	      6.97612932	      4.43750882	     -0.79591770	      0.98775621	      0.25995671	     28.27443053	     -7.95761002	     -7.07849513	      0.78458798	      2.11443535	     -8.64076190	     -1.12891494	    -11.83705855	      7.75436233	     -7.28471463	     -5.70790754	     11.01923018	      0.84135820	      0.38412651	     -8.50406950	     -8.74605058	     -1.88601684
      0.55816667	     -2.84828962	      6.82363764	      4.53854025	     -0.78974982	      0.98755749	      0.26018820	     28.04257182	     -7.79824908	     -6.93782053	      0.30107504	      1.82064105	     -9.31288109	     -1.54866952	    -12.23835965	      7.45419162	     -7.22961015	     -6.08703050	     11.06165766	      1.00338349	      0.47615790	     -8.71922969	     -8.49250570	     -2.09160806
      0.56233333	     -2.50612359	      6.61381194	      4.58887728	     -0.78341176	      0.98758988	      0.26043369	     27.65982827	     -7.56030858	     -6.88219056	     -0.21896107	      1.68599071	     -9.77594411	     -2.34299728	    -12.80471304	      7.09338476	     -7.20728054	     -6.41383791	     11.07993784	      1.15996522	      0.69277355	     -9.04298659	     -8.14315405	     -2.21361650
      0.56650000	     -2.39304079	      6.51191679	      4.71730088	     -0.77723418	      0.98729520	      0.26060357	     27.54476253	     -7.46829671	     -6.80380053	     -0.79194485	      1.35667810	    -10.32701316	     -2.66792744	    -13.07266803	      6.85425266	     -7.04685996	     -6.85290457	     11.07191980	      1.17288583	      0.80350694	     -9.14097652	     -7.95039695	     -2.29823593
      0.57066667	     -2.15740042	      6.34527637	      4.79450539	     -0.77094355	      0.98722169	      0.26090549	     27.26653906	     -7.27412342	     -6.73161970	     -1.32314341	      0.99822549	    -10.90104306	     -2.98420497	    -13.46671246	      6.53236658	     -6.98247470	     -7.29714975	     11.04316447	      1.26525961	      0.93807232	     -9.36298511	     -7.67808442	     -2.41722549
      0.57483333	     -1.85520559	      6.14403069	      4.82796930	     -0.76454178	      0.98728487	      0.26129285	     26.89941795	     -7.01814924	     -6.66840361	     -1.83735944	      0.65457447	    -11.42597808	     -3.47831391	    -13.92783134	      6.17095233	     -6.99441558	     -7.73823371	     11.00690643	      1.41158426	      1.21160810	     -9.64086656	     -7.35704392	     -2.53078400
      0.57900000	     -1.67398808	      5.97812227	      4.90052748	     -0.75816480	      0.98721546	      0.26163881	     26.65029696	     -6.81558230	     -6.60827735	     -2.33212652	      0.13897801	    -12.02180225	     -3.77122364	    -14.22637769	      5.85216258	     -6.92936974	     -8.24497817	     10.87330750	      1.43527206	      1.41838205	     -9.78065590	     -7.08556023	     -2.61267845
      0.58316667	     -1.55829145	      5.84471133	      4.99479613	     -0.75183851	      0.98708542	      0.26196199	     26.47589913	     -6.66005717	     -6.58183710	     -2.83493941	     -0.46534422	    -12.55738930	     -3.88637068	    -14.42077623	      5.56998816	     -6.79953126	     -8.82572834	     10.80646001	      1.43849071	      1.51820710	     -9.86001265	     -6.87017067	     -2.60662334
      0.58733333	     -1.25209412	      5.61052134	      4.97817386	     -0.74534494	      0.98726972	      0.26259816	     26.05283443	     -6.32212097	     -6.46506509	     -3.23914419	     -1.08358252	    -13.25129724	     -4.11392456	    -14.81299470	      5.16094722	     -6.92454149	     -9.39662192	     10.63651056	      1.60782155	      1.79012066	    -10.13724330	     -6.53809859	     -2.71673220
      0.59150000	     -1.08079460	      5.42080152	      5.00507834	     -0.73885398	      0.98731421	      0.26307781	     25.77653656	     -6.06704310	     -6.43054774	     -3.64805778	     -1.83508034	    -13.85517517	     -4.25132905	    -15.03750843	      4.81956717	     -6.92047451	    -10.01681088	     10.42507708	      1.60015029	      1.99728775	    -10.24053958	     -6.24782367	     -2.69398305
      0.59566667	     -0.78593831	      5.20396326	      4.91675350	     -0.73235138	      0.98754023	      0.26387394	     25.36480314	     -5.71519998	     -6.28245921	     -4.00513450	     -2.67800283	    -14.45882350	     -4.46405391	    -15.37134207	      4.44129599	     -7.12052632	    -10.67510860	     10.22299217	      1.78225468	      2.44928815	    -10.49647295	     -5.94950916	     -2.70365478
      0.59983333	     -0.55355247	      4.94488760	      4.83504219	     -0.72573143	      0.98773719	      0.26464899	     24.99737128	     -5.32714162	     -6.16727155	     -4.32999765	     -3.53383276	    -15.07235326	     -4.75152320	    -15.62181106	      4.02597211	     -7.31313904	    -11.36051877	      9.88713907	      1.86996546	      3.28989733	    -10.65390384	     -5.60853175	     -2.57863366
      0.60400000	     -0.40937519	      4.78004133	      4.75682310	     -0.71929816	      0.98782425	      0.26544726	     24.76167973	     -5.04386519	     -6.00648562	     -4.70358451	     -4.45652493	    -15.73351528	     -4.91260032	    -15.72280171	      3.72231263	     -7.42786940	    -12.15355414	      9.62744977	      1.86535716	      3.92545145	    -10.74646162	     -5.38903746	     -2.58341933
      0.60816667	     -0.23297343	      4.52371899	      4.61950048	     -0.71267016	      0.98801264	      0.26636671	     24.46240823	     -4.63914588	     -5.84941666	     -5.02086906	     -5.37843952	    -16.33207105	     -5.08186089	    -15.85505070	      3.32515543	     -7.65894514	    -12.94626463	      9.20957505	      1.90199563	      4.88471971	    -10.84463922	     -5.07561988	     -2.38425197
      0.61233333	     -0.17716849	      4.35388948	      4.60529778	     -0.70621150	      0.98812238	      0.26696172	     24.30155620	     -4.40438644	     -5.82267145	     -5.38450658	     -6.25102318	    -16.82263019	     -5.12381708	    -15.78697524	      3.02353667	     -7.65164997	    -13.86835658	      8.80313576	      1.67853712	      5.12771410	    -10.81172613	     -4.83193317	     -2.27287098
      0.61650000	     -0.14364835	      4.19359629	      4.18079409	     -0.69966336	      0.98799040	      0.26859570	     24.26253180	     -3.96635669	     -5.25562632	     -5.81380253	     -7.17665210	    -17.52502757	     -5.79023054	    -15.71796772	      2.78444285	     -8.19973302	    -14.76259778	      8.23969638	      1.62473238	     12.53062062	    -10.74306141	     -4.72222360	     -1.82128751
      0.62066667	      0.05637314	      3.91017010	      4.17076090	     -0.69313027	      0.98845730	      0.26918169	     23.90110309	     -3.62033245	     -5.34760311	     -6.10177397	     -8.08541345	    -17.95624586	     -5.80443334	    -15.73146575	      2.32893447	     -8.28485006	    -15.80755274	      7.80945072	      1.60540193	     12.65296529	    -10.88381292	     -4.32828191	     -1.82583664
      0.62483333	      0.19421731	      3.67266949	      3.98623710	     -0.68661250	      0.98878191	      0.27016575	     23.65695056	     -3.24214824	     -5.18321094	     -6.43914789	     -8.94744872	    -18.39438717	     -5.81401599	    -15.67011154	      1.96279478	     -8.52488487	    -16.87199564	      7.25003729	      1.50212949	     12.86923246	    -10.94621235	     -4.04728103	     -1.63698175
      0.62900000	      0.26340082	      3.43254871	      3.83242101	     -0.68010040	      0.98905732	      0.27104964	     23.49512302	     -2.88909153	     -5.07407788	     -6.82052219	     -9.68434556	    -18.78902589	     -5.82399738	    -15.48612290	      1.59633976	     -8.71019266	    -18.02272213	      6.62818873	      1.26868808	     13.02847346	    -10.92289644	     -3.75121165	     -1.42591839
